#!OML:ASF E:\Steps\Project 1\Capture day 1\Session 2\Subject.ASF
:FULLY-SPECIFIED
:DEGREES
37
root 9.27015 16.2996 19.886 -151.694 -1.97319 179.102
lowerback -30.0629 -1.80096 -5.42176
upperback -2.27101 -1.42528 0.279914
thorax 13.3523 -1.30653 2.60899
lowerneck 0.381971 -1.67195 -2.79195
upperneck -14.5093 -2.42495 7.37381
head -4.2543 -1.83139 2.84992
rclavicle -1.08338e-014 -1.07344e-014
rhumerus -42.2486 -30.7628 -67.2301
rradius 21.3145
rwrist 11.7138
rhand -12.234 -56.349
rfingers 7.12502
rthumb 13.8315 -85.8692
lclavicle -1.08338e-014 -1.07344e-014
lhumerus -36.2722 22.6534 69.8074
lradius 12.2587
lwrist -25.1829
lhand -20.7982 -12.0875
lfingers 7.12502
lthumb 5.56922 17.8193
rfemur -24.0723 6.33725 19.5783
rtibia 5.25438
rfoot -17.8837 -5.81385
rtoes -29.4205
lfemur -26.493 -9.99374 -18.3548
ltibia 8.94071
lfoot -7.71346 -0.387328
ltoes -19.1334
38
root 9.26816 16.2989 19.8865 -151.659 -2.00585 179.079
lowerback -30.1079 -1.84248 -5.46207
upperback -2.24871 -1.4637 0.30678
thorax 13.4026 -1.32701 2.64367
lowerneck 0.636555 -1.60619 -2.87647
upperneck -14.7861 -2.33588 7.43445
head -4.3838 -1.80024 2.89018
rclavicle -5.76476e-015 1.98785e-015
rhumerus -42.0352 -30.9665 -67.2574
rradius 21.3366
rwrist 11.9108
rhand -11.8852 -55.2641
rfingers 7.12502
rthumb 14.1676 -84.761
lclavicle -5.76476e-015 1.98785e-015
lhumerus -36.0402 22.0344 70.466
lradius 12.6432
lwrist -24.0869
lhand -20.7954 -12.1081
lfingers 7.12502
lthumb 5.5719 17.7987
rfemur -24.0944 6.59631 19.4846
rtibia 5.23084
rfoot -17.8593 -6.18428
rtoes -29.3649
lfemur -26.5588 -9.93616 -18.3951
ltibia 8.98433
lfoot -7.73384 -0.498316
ltoes -20.2933
39
root 9.26716 16.2989 19.888 -151.637 -2.04595 179.042
lowerback -30.1444 -1.86076 -5.50239
upperback -2.20965 -1.46251 0.287028
thorax 13.4633 -1.32795 2.64366
lowerneck 0.298517 -1.68802 -2.8309
upperneck -14.5821 -2.44844 7.48719
head -4.25857 -1.85399 2.89288
rclavicle -8.94531e-015 -1.2921e-014
rhumerus -41.7563 -30.8856 -67.5861
rradius 21.4638
rwrist 11.5895
rhand -9.21451 -47.8583
rfingers 7.12502
rthumb 16.7399 -77.1566
lclavicle -8.94531e-015 -1.2921e-014
lhumerus -35.6848 21.4098 71.0699
lradius 12.9605
lwrist -23.0482
lhand -20.7389 -11.8498
lfingers 7.12502
lthumb 5.62641 18.0555
rfemur -24.1169 6.80385 19.3901
rtibia 5.24182
rfoot -17.8916 -6.49685
rtoes -29.8959
lfemur -26.6039 -9.95564 -18.428
ltibia 9.01987
lfoot -7.71479 -0.541624
ltoes -21.1257
40
root 9.26435 16.2996 19.8872 -151.682 -2.06767 179.003
lowerback -30.1326 -1.80532 -5.52077
upperback -2.15786 -1.36013 0.183078
thorax 13.5054 -1.27871 2.58173
lowerneck 0.377067 -1.71589 -2.72403
upperneck -14.5951 -2.47452 7.52722
head -4.2751 -1.87515 2.88979
rclavicle -5.26779e-015 -1.90833e-014
rhumerus -41.5705 -30.6138 -68.1142
rradius 21.7518
rwrist 10.8923
rhand -9.41194 -48.4711
rfingers 7.12502
rthumb 16.5499 -77.7854
lclavicle -5.26779e-015 -1.90833e-014
lhumerus -35.2644 20.1892 71.8976
lradius 13.3893
lwrist -21.7529
lhand -20.7257 -11.6146
lfingers 7.12502
lthumb 5.63921 18.2903
rfemur -24.0541 6.66139 19.3651
rtibia 5.2283
rfoot -17.8894 -6.42465
rtoes -30.1548
lfemur -26.5205 -10.1065 -18.4483
ltibia 8.92892
lfoot -7.63623 -0.453674
ltoes -20.7485
41
root 9.25858 16.3013 19.8837 -151.798 -2.08302 178.966
lowerback -30.0717 -1.7877 -5.48219
upperback -2.14949 -1.34223 0.124779
thorax 13.4843 -1.26547 2.50643
lowerneck 0.591606 -1.7349 -2.7431
upperneck -14.6796 -2.48438 7.62904
head -4.33414 -1.88826 2.93007
rclavicle 7.45443e-015 -5.1684e-015
rhumerus -41.412 -30.2087 -68.5407
rradius 21.9915
rwrist 10.3957
rhand -9.55879 -48.5674
rfingers 7.12502
rthumb 16.4085 -77.8933
lclavicle 7.45443e-015 -5.1684e-015
lhumerus -35.1297 19.0544 72.678
lradius 13.908
lwrist -20.4121
lhand -20.8491 -11.5763
lfingers 7.12502
lthumb 5.52007 18.3318
rfemur -23.8856 6.63117 19.2878
rtibia 5.13408
rfoot -17.8006 -6.41205
rtoes -29.6998
lfemur -26.3323 -10.3315 -18.4914
ltibia 8.77906
lfoot -7.58139 -0.265551
ltoes -21.2948
42
root 9.25704 16.3055 19.8866 -151.881 -2.22019 178.902
lowerback -29.9215 -1.77405 -5.52945
upperback -2.14281 -1.29911 0.0425447
thorax 13.4193 -1.24273 2.46394
lowerneck 0.68293 -1.83819 -2.62272
upperneck -14.9096 -2.61914 7.76063
head -4.41171 -1.98381 2.96267
rclavicle 1.41137e-014 5.96354e-015
rhumerus -41.2533 -29.9076 -69.0187
rradius 22.3008
rwrist 9.70876
rhand -9.48126 -48.2356
rfingers 7.12502
rthumb 16.4831 -77.5554
lclavicle 1.41137e-014 5.96354e-015
lhumerus -34.8483 18.1293 73.2797
lradius 14.3221
lwrist -19.3148
lhand -20.9256 -11.5589
lfingers 7.12502
lthumb 5.44615 18.3511
rfemur -23.7442 6.82973 19.189
rtibia 5.00427
rfoot -17.6739 -6.81213
rtoes -29.9143
lfemur -26.2592 -10.3617 -18.5774
ltibia 8.7417
lfoot -7.50407 -0.343344
ltoes -22.1467
43
root 9.25543 16.3071 19.8873 -151.939 -2.32152 178.884
lowerback -29.8763 -1.78335 -5.60058
upperback -2.11962 -1.28336 0.0489495
thorax 13.4253 -1.23745 2.51691
lowerneck 0.686575 -1.84396 -2.59777
upperneck -14.7611 -2.61165 7.79277
head -4.36719 -1.97389 2.96442
rclavicle 1.14301e-015 -1.47101e-014
rhumerus -41.1319 -29.8925 -69.1255
rradius 22.4442
rwrist 9.33745
rhand -9.55208 -47.0315
rfingers 7.12502
rthumb 16.4149 -76.357
lclavicle 1.14301e-015 -1.47101e-014
lhumerus -34.5873 17.3694 73.9371
lradius 14.7837
lwrist -18.3607
lhand -20.8493 -11.3945
lfingers 7.12502
lthumb 5.51985 18.5136
rfemur -23.6271 6.77178 19.2156
rtibia 4.90779
rfoot -17.6251 -6.93783
rtoes -30.5171
lfemur -26.158 -10.3721 -18.5939
ltibia 8.64193
lfoot -7.41157 -0.471168
ltoes -20.9548
